<mxfile host="app.diagrams.net" modified="2023-11-30T00:07:36.187Z" agent="Mozilla/5.0 (Macintosh; Intel Mac OS X 10_15_7) AppleWebKit/537.36 (KHTML, like Gecko) Chrome/117.0.0.0 Safari/537.36" etag="Q7nHnK3jq4bUPlABtx9D" version="22.1.4" type="device" pages="2">
  <diagram name="PÃ¡gina-1" id="uTMi0JiGRbPLrmZN4RVY">
    <mxGraphModel dx="1434" dy="765" grid="1" gridSize="10" guides="1" tooltips="1" connect="1" arrows="1" fold="1" page="1" pageScale="1" pageWidth="827" pageHeight="1169" math="0" shadow="0">
      <root>
        <mxCell id="0" />
        <mxCell id="1" parent="0" />
        <mxCell id="oDi2kt3rDkoD5hF5yMl4-1" value="1" style="rounded=0;whiteSpace=wrap;html=1;" vertex="1" parent="1">
          <mxGeometry x="520" y="120" width="40" height="40" as="geometry" />
        </mxCell>
        <mxCell id="oDi2kt3rDkoD5hF5yMl4-2" value="1" style="rounded=0;whiteSpace=wrap;html=1;" vertex="1" parent="1">
          <mxGeometry x="480" y="120" width="40" height="40" as="geometry" />
        </mxCell>
        <mxCell id="oDi2kt3rDkoD5hF5yMl4-3" value="1" style="rounded=0;whiteSpace=wrap;html=1;" vertex="1" parent="1">
          <mxGeometry x="440" y="120" width="40" height="40" as="geometry" />
        </mxCell>
        <mxCell id="oDi2kt3rDkoD5hF5yMl4-4" value="1" style="rounded=0;whiteSpace=wrap;html=1;" vertex="1" parent="1">
          <mxGeometry x="400" y="120" width="40" height="40" as="geometry" />
        </mxCell>
        <mxCell id="oDi2kt3rDkoD5hF5yMl4-5" value="2" style="text;html=1;strokeColor=none;fillColor=none;align=center;verticalAlign=middle;whiteSpace=wrap;rounded=0;" vertex="1" parent="1">
          <mxGeometry x="520" y="90" width="40" height="30" as="geometry" />
        </mxCell>
        <mxCell id="oDi2kt3rDkoD5hF5yMl4-6" value="2" style="text;html=1;strokeColor=none;fillColor=none;align=center;verticalAlign=middle;whiteSpace=wrap;rounded=0;" vertex="1" parent="1">
          <mxGeometry x="480" y="90" width="40" height="30" as="geometry" />
        </mxCell>
        <mxCell id="oDi2kt3rDkoD5hF5yMl4-7" value="2" style="text;html=1;strokeColor=none;fillColor=none;align=center;verticalAlign=middle;whiteSpace=wrap;rounded=0;" vertex="1" parent="1">
          <mxGeometry x="440" y="90" width="40" height="30" as="geometry" />
        </mxCell>
        <mxCell id="oDi2kt3rDkoD5hF5yMl4-8" value="2" style="text;html=1;strokeColor=none;fillColor=none;align=center;verticalAlign=middle;whiteSpace=wrap;rounded=0;" vertex="1" parent="1">
          <mxGeometry x="400" y="90" width="40" height="30" as="geometry" />
        </mxCell>
        <mxCell id="oDi2kt3rDkoD5hF5yMl4-9" value="0" style="text;html=1;strokeColor=none;fillColor=none;align=center;verticalAlign=middle;whiteSpace=wrap;rounded=0;" vertex="1" parent="1">
          <mxGeometry x="540" y="70" width="40" height="30" as="geometry" />
        </mxCell>
        <mxCell id="oDi2kt3rDkoD5hF5yMl4-10" value="1" style="text;html=1;strokeColor=none;fillColor=none;align=center;verticalAlign=middle;whiteSpace=wrap;rounded=0;" vertex="1" parent="1">
          <mxGeometry x="490" y="70" width="40" height="30" as="geometry" />
        </mxCell>
        <mxCell id="oDi2kt3rDkoD5hF5yMl4-11" value="2" style="text;html=1;strokeColor=none;fillColor=none;align=center;verticalAlign=middle;whiteSpace=wrap;rounded=0;" vertex="1" parent="1">
          <mxGeometry x="450" y="70" width="40" height="30" as="geometry" />
        </mxCell>
        <mxCell id="oDi2kt3rDkoD5hF5yMl4-12" value="3" style="text;html=1;strokeColor=none;fillColor=none;align=center;verticalAlign=middle;whiteSpace=wrap;rounded=0;" vertex="1" parent="1">
          <mxGeometry x="410" y="70" width="40" height="30" as="geometry" />
        </mxCell>
        <mxCell id="oDi2kt3rDkoD5hF5yMl4-13" value="2" style="text;html=1;strokeColor=none;fillColor=none;align=center;verticalAlign=middle;whiteSpace=wrap;rounded=0;" vertex="1" parent="1">
          <mxGeometry x="480" y="160" width="40" height="30" as="geometry" />
        </mxCell>
        <mxCell id="oDi2kt3rDkoD5hF5yMl4-14" value="1" style="text;html=1;strokeColor=none;fillColor=none;align=center;verticalAlign=middle;whiteSpace=wrap;rounded=0;" vertex="1" parent="1">
          <mxGeometry x="520" y="160" width="40" height="30" as="geometry" />
        </mxCell>
        <mxCell id="oDi2kt3rDkoD5hF5yMl4-15" value="4" style="text;html=1;strokeColor=none;fillColor=none;align=center;verticalAlign=middle;whiteSpace=wrap;rounded=0;" vertex="1" parent="1">
          <mxGeometry x="440" y="160" width="40" height="30" as="geometry" />
        </mxCell>
        <mxCell id="oDi2kt3rDkoD5hF5yMl4-16" value="8" style="text;html=1;strokeColor=none;fillColor=none;align=center;verticalAlign=middle;whiteSpace=wrap;rounded=0;" vertex="1" parent="1">
          <mxGeometry x="400" y="160" width="40" height="30" as="geometry" />
        </mxCell>
        <mxCell id="oDi2kt3rDkoD5hF5yMl4-17" value="1" style="rounded=0;whiteSpace=wrap;html=1;" vertex="1" parent="1">
          <mxGeometry x="360" y="120" width="40" height="40" as="geometry" />
        </mxCell>
        <mxCell id="oDi2kt3rDkoD5hF5yMl4-19" value="2" style="text;html=1;strokeColor=none;fillColor=none;align=center;verticalAlign=middle;whiteSpace=wrap;rounded=0;" vertex="1" parent="1">
          <mxGeometry x="360" y="90" width="40" height="30" as="geometry" />
        </mxCell>
        <mxCell id="oDi2kt3rDkoD5hF5yMl4-20" value="4" style="text;html=1;strokeColor=none;fillColor=none;align=center;verticalAlign=middle;whiteSpace=wrap;rounded=0;" vertex="1" parent="1">
          <mxGeometry x="370" y="70" width="40" height="30" as="geometry" />
        </mxCell>
        <mxCell id="oDi2kt3rDkoD5hF5yMl4-21" value="16" style="text;html=1;strokeColor=none;fillColor=none;align=center;verticalAlign=middle;whiteSpace=wrap;rounded=0;" vertex="1" parent="1">
          <mxGeometry x="360" y="160" width="40" height="30" as="geometry" />
        </mxCell>
        <mxCell id="oDi2kt3rDkoD5hF5yMl4-22" value="&amp;nbsp;" style="rounded=0;whiteSpace=wrap;html=1;" vertex="1" parent="1">
          <mxGeometry x="360" y="280" width="40" height="40" as="geometry" />
        </mxCell>
        <mxCell id="oDi2kt3rDkoD5hF5yMl4-23" value="a" style="rounded=0;whiteSpace=wrap;html=1;" vertex="1" parent="1">
          <mxGeometry x="320" y="280" width="40" height="40" as="geometry" />
        </mxCell>
        <mxCell id="oDi2kt3rDkoD5hF5yMl4-24" value="l" style="rounded=0;whiteSpace=wrap;html=1;" vertex="1" parent="1">
          <mxGeometry x="280" y="280" width="40" height="40" as="geometry" />
        </mxCell>
        <mxCell id="oDi2kt3rDkoD5hF5yMl4-25" value="o" style="rounded=0;whiteSpace=wrap;html=1;" vertex="1" parent="1">
          <mxGeometry x="240" y="280" width="40" height="40" as="geometry" />
        </mxCell>
        <mxCell id="oDi2kt3rDkoD5hF5yMl4-26" value="h" style="rounded=0;whiteSpace=wrap;html=1;" vertex="1" parent="1">
          <mxGeometry x="200" y="280" width="40" height="40" as="geometry" />
        </mxCell>
        <mxCell id="oDi2kt3rDkoD5hF5yMl4-27" value="1" style="text;html=1;strokeColor=none;fillColor=none;align=center;verticalAlign=middle;whiteSpace=wrap;rounded=0;" vertex="1" parent="1">
          <mxGeometry x="200" y="250" width="40" height="30" as="geometry" />
        </mxCell>
        <mxCell id="oDi2kt3rDkoD5hF5yMl4-28" value="2" style="text;html=1;strokeColor=none;fillColor=none;align=center;verticalAlign=middle;whiteSpace=wrap;rounded=0;" vertex="1" parent="1">
          <mxGeometry x="240" y="250" width="40" height="30" as="geometry" />
        </mxCell>
        <mxCell id="oDi2kt3rDkoD5hF5yMl4-29" value="3" style="text;html=1;strokeColor=none;fillColor=none;align=center;verticalAlign=middle;whiteSpace=wrap;rounded=0;" vertex="1" parent="1">
          <mxGeometry x="280" y="250" width="40" height="30" as="geometry" />
        </mxCell>
        <mxCell id="oDi2kt3rDkoD5hF5yMl4-31" value="4" style="text;html=1;strokeColor=none;fillColor=none;align=center;verticalAlign=middle;whiteSpace=wrap;rounded=0;" vertex="1" parent="1">
          <mxGeometry x="320" y="250" width="40" height="30" as="geometry" />
        </mxCell>
        <mxCell id="oDi2kt3rDkoD5hF5yMl4-32" value="5" style="text;html=1;strokeColor=none;fillColor=none;align=center;verticalAlign=middle;whiteSpace=wrap;rounded=0;" vertex="1" parent="1">
          <mxGeometry x="360" y="250" width="40" height="30" as="geometry" />
        </mxCell>
        <mxCell id="oDi2kt3rDkoD5hF5yMl4-33" value="0" style="text;html=1;strokeColor=none;fillColor=none;align=center;verticalAlign=middle;whiteSpace=wrap;rounded=0;" vertex="1" parent="1">
          <mxGeometry x="200" y="320" width="40" height="30" as="geometry" />
        </mxCell>
        <mxCell id="oDi2kt3rDkoD5hF5yMl4-34" value="1" style="text;html=1;strokeColor=none;fillColor=none;align=center;verticalAlign=middle;whiteSpace=wrap;rounded=0;" vertex="1" parent="1">
          <mxGeometry x="240" y="320" width="40" height="30" as="geometry" />
        </mxCell>
        <mxCell id="oDi2kt3rDkoD5hF5yMl4-35" value="2" style="text;html=1;strokeColor=none;fillColor=none;align=center;verticalAlign=middle;whiteSpace=wrap;rounded=0;" vertex="1" parent="1">
          <mxGeometry x="280" y="320" width="40" height="30" as="geometry" />
        </mxCell>
        <mxCell id="oDi2kt3rDkoD5hF5yMl4-36" value="3" style="text;html=1;strokeColor=none;fillColor=none;align=center;verticalAlign=middle;whiteSpace=wrap;rounded=0;" vertex="1" parent="1">
          <mxGeometry x="320" y="320" width="40" height="30" as="geometry" />
        </mxCell>
        <mxCell id="oDi2kt3rDkoD5hF5yMl4-37" value="4" style="text;html=1;strokeColor=none;fillColor=none;align=center;verticalAlign=middle;whiteSpace=wrap;rounded=0;" vertex="1" parent="1">
          <mxGeometry x="360" y="320" width="40" height="30" as="geometry" />
        </mxCell>
        <mxCell id="oDi2kt3rDkoD5hF5yMl4-38" value="&amp;nbsp;" style="rounded=0;whiteSpace=wrap;html=1;" vertex="1" parent="1">
          <mxGeometry x="440" y="440" width="40" height="40" as="geometry" />
        </mxCell>
        <mxCell id="oDi2kt3rDkoD5hF5yMl4-39" value="0" style="rounded=0;whiteSpace=wrap;html=1;" vertex="1" parent="1">
          <mxGeometry x="400" y="440" width="40" height="40" as="geometry" />
        </mxCell>
        <mxCell id="oDi2kt3rDkoD5hF5yMl4-40" value="9" style="rounded=0;whiteSpace=wrap;html=1;" vertex="1" parent="1">
          <mxGeometry x="360" y="440" width="40" height="40" as="geometry" />
        </mxCell>
        <mxCell id="oDi2kt3rDkoD5hF5yMl4-41" value="5" style="rounded=0;whiteSpace=wrap;html=1;" vertex="1" parent="1">
          <mxGeometry x="320" y="440" width="40" height="40" as="geometry" />
        </mxCell>
        <mxCell id="oDi2kt3rDkoD5hF5yMl4-42" value="1" style="rounded=0;whiteSpace=wrap;html=1;" vertex="1" parent="1">
          <mxGeometry x="280" y="440" width="40" height="40" as="geometry" />
        </mxCell>
        <mxCell id="oDi2kt3rDkoD5hF5yMl4-43" value="&amp;nbsp;" style="rounded=0;whiteSpace=wrap;html=1;" vertex="1" parent="1">
          <mxGeometry x="440" y="480" width="40" height="40" as="geometry" />
        </mxCell>
        <mxCell id="oDi2kt3rDkoD5hF5yMl4-44" value="8" style="rounded=0;whiteSpace=wrap;html=1;" vertex="1" parent="1">
          <mxGeometry x="400" y="480" width="40" height="40" as="geometry" />
        </mxCell>
        <mxCell id="oDi2kt3rDkoD5hF5yMl4-45" value="6" style="rounded=0;whiteSpace=wrap;html=1;" vertex="1" parent="1">
          <mxGeometry x="360" y="480" width="40" height="40" as="geometry" />
        </mxCell>
        <mxCell id="oDi2kt3rDkoD5hF5yMl4-46" value="4" style="rounded=0;whiteSpace=wrap;html=1;" vertex="1" parent="1">
          <mxGeometry x="320" y="480" width="40" height="40" as="geometry" />
        </mxCell>
        <mxCell id="oDi2kt3rDkoD5hF5yMl4-47" value="2" style="rounded=0;whiteSpace=wrap;html=1;" vertex="1" parent="1">
          <mxGeometry x="280" y="480" width="40" height="40" as="geometry" />
        </mxCell>
        <mxCell id="oDi2kt3rDkoD5hF5yMl4-48" value="&amp;nbsp;" style="rounded=0;whiteSpace=wrap;html=1;" vertex="1" parent="1">
          <mxGeometry x="440" y="520" width="40" height="40" as="geometry" />
        </mxCell>
        <mxCell id="oDi2kt3rDkoD5hF5yMl4-49" value="&quot;hOLA&quot;" style="rounded=0;whiteSpace=wrap;html=1;" vertex="1" parent="1">
          <mxGeometry x="400" y="520" width="40" height="40" as="geometry" />
        </mxCell>
        <mxCell id="oDi2kt3rDkoD5hF5yMl4-50" value="-1" style="rounded=0;whiteSpace=wrap;html=1;" vertex="1" parent="1">
          <mxGeometry x="360" y="520" width="40" height="40" as="geometry" />
        </mxCell>
        <mxCell id="oDi2kt3rDkoD5hF5yMl4-51" value="7" style="rounded=0;whiteSpace=wrap;html=1;" vertex="1" parent="1">
          <mxGeometry x="320" y="520" width="40" height="40" as="geometry" />
        </mxCell>
        <mxCell id="oDi2kt3rDkoD5hF5yMl4-52" value="3" style="rounded=0;whiteSpace=wrap;html=1;" vertex="1" parent="1">
          <mxGeometry x="280" y="520" width="40" height="40" as="geometry" />
        </mxCell>
        <mxCell id="oDi2kt3rDkoD5hF5yMl4-53" value="0" style="text;html=1;strokeColor=none;fillColor=none;align=center;verticalAlign=middle;whiteSpace=wrap;rounded=0;" vertex="1" parent="1">
          <mxGeometry x="280" y="410" width="40" height="30" as="geometry" />
        </mxCell>
        <mxCell id="oDi2kt3rDkoD5hF5yMl4-54" value="1" style="text;html=1;strokeColor=none;fillColor=none;align=center;verticalAlign=middle;whiteSpace=wrap;rounded=0;" vertex="1" parent="1">
          <mxGeometry x="320" y="410" width="40" height="30" as="geometry" />
        </mxCell>
        <mxCell id="oDi2kt3rDkoD5hF5yMl4-55" value="2" style="text;html=1;strokeColor=none;fillColor=none;align=center;verticalAlign=middle;whiteSpace=wrap;rounded=0;" vertex="1" parent="1">
          <mxGeometry x="360" y="410" width="40" height="30" as="geometry" />
        </mxCell>
        <mxCell id="oDi2kt3rDkoD5hF5yMl4-56" value="3" style="text;html=1;strokeColor=none;fillColor=none;align=center;verticalAlign=middle;whiteSpace=wrap;rounded=0;" vertex="1" parent="1">
          <mxGeometry x="400" y="410" width="40" height="30" as="geometry" />
        </mxCell>
        <mxCell id="oDi2kt3rDkoD5hF5yMl4-57" value="4" style="text;html=1;strokeColor=none;fillColor=none;align=center;verticalAlign=middle;whiteSpace=wrap;rounded=0;" vertex="1" parent="1">
          <mxGeometry x="440" y="410" width="40" height="30" as="geometry" />
        </mxCell>
        <mxCell id="oDi2kt3rDkoD5hF5yMl4-58" value="0" style="text;html=1;strokeColor=none;fillColor=none;align=center;verticalAlign=middle;whiteSpace=wrap;rounded=0;" vertex="1" parent="1">
          <mxGeometry x="240" y="445" width="40" height="35" as="geometry" />
        </mxCell>
        <mxCell id="oDi2kt3rDkoD5hF5yMl4-59" value="1" style="text;html=1;strokeColor=none;fillColor=none;align=center;verticalAlign=middle;whiteSpace=wrap;rounded=0;" vertex="1" parent="1">
          <mxGeometry x="240" y="480" width="40" height="30" as="geometry" />
        </mxCell>
        <mxCell id="oDi2kt3rDkoD5hF5yMl4-60" value="2" style="text;html=1;strokeColor=none;fillColor=none;align=center;verticalAlign=middle;whiteSpace=wrap;rounded=0;" vertex="1" parent="1">
          <mxGeometry x="240" y="525" width="40" height="30" as="geometry" />
        </mxCell>
        <mxCell id="oDi2kt3rDkoD5hF5yMl4-61" value="MATRIZ [1][3]" style="text;html=1;strokeColor=none;fillColor=none;align=center;verticalAlign=middle;whiteSpace=wrap;rounded=0;" vertex="1" parent="1">
          <mxGeometry x="321" y="600" width="150" height="30" as="geometry" />
        </mxCell>
      </root>
    </mxGraphModel>
  </diagram>
  <diagram id="KLV5PW1BmDpqJkdZDuxu" name="PÃ¡gina-2">
    <mxGraphModel dx="1434" dy="1934" grid="1" gridSize="10" guides="1" tooltips="1" connect="1" arrows="1" fold="1" page="1" pageScale="1" pageWidth="827" pageHeight="1169" math="0" shadow="0">
      <root>
        <mxCell id="0" />
        <mxCell id="1" parent="0" />
        <mxCell id="t6oE3MXdXMBLMWBSh-ZQ-1" value="Estacionamiento/Entrada" style="rounded=0;whiteSpace=wrap;html=1;fillColor=#dae8fc;strokeColor=#6c8ebf;" vertex="1" parent="1">
          <mxGeometry x="320" y="170" width="190" height="270" as="geometry" />
        </mxCell>
        <mxCell id="t6oE3MXdXMBLMWBSh-ZQ-2" value="Huerta&amp;nbsp; Pineda zuÃ±iga" style="rounded=0;whiteSpace=wrap;html=1;fillColor=#ffe6cc;strokeColor=#d79b00;" vertex="1" parent="1">
          <mxGeometry x="100" y="170" width="220" height="270" as="geometry" />
        </mxCell>
        <mxCell id="t6oE3MXdXMBLMWBSh-ZQ-3" value="Huerta Pineda Sanchez" style="rounded=0;whiteSpace=wrap;html=1;fillColor=#d5e8d4;strokeColor=#82b366;" vertex="1" parent="1">
          <mxGeometry x="100" y="-100" width="730" height="270" as="geometry" />
        </mxCell>
        <mxCell id="t6oE3MXdXMBLMWBSh-ZQ-4" value="Huerta de Armencia" style="rounded=0;whiteSpace=wrap;html=1;fillColor=#dae8fc;strokeColor=#6c8ebf;" vertex="1" parent="1">
          <mxGeometry x="504" y="170" width="516" height="270" as="geometry" />
        </mxCell>
        <mxCell id="t6oE3MXdXMBLMWBSh-ZQ-5" value="Negro ramos" style="rounded=0;whiteSpace=wrap;html=1;fillColor=#f8cecc;strokeColor=#b85450;" vertex="1" parent="1">
          <mxGeometry x="830" y="-100" width="190" height="270" as="geometry" />
        </mxCell>
        <mxCell id="t6oE3MXdXMBLMWBSh-ZQ-6" value="Quincha divisoria" style="rounded=0;whiteSpace=wrap;html=1;fillColor=#f0a30a;strokeColor=#BD7000;fontColor=#000000;" vertex="1" parent="1">
          <mxGeometry x="100" y="166" width="220" height="10" as="geometry" />
        </mxCell>
        <mxCell id="t6oE3MXdXMBLMWBSh-ZQ-9" style="edgeStyle=orthogonalEdgeStyle;rounded=0;orthogonalLoop=1;jettySize=auto;html=1;entryX=0.5;entryY=0;entryDx=0;entryDy=0;endArrow=none;endFill=0;strokeWidth=3;" edge="1" parent="1" source="t6oE3MXdXMBLMWBSh-ZQ-7" target="t6oE3MXdXMBLMWBSh-ZQ-8">
          <mxGeometry relative="1" as="geometry">
            <Array as="points">
              <mxPoint x="370" y="140" />
              <mxPoint x="370" y="200" />
              <mxPoint x="484" y="200" />
            </Array>
          </mxGeometry>
        </mxCell>
        <mxCell id="t6oE3MXdXMBLMWBSh-ZQ-12" style="edgeStyle=orthogonalEdgeStyle;rounded=0;orthogonalLoop=1;jettySize=auto;html=1;entryX=1;entryY=0.5;entryDx=0;entryDy=0;strokeWidth=2;" edge="1" parent="1" source="t6oE3MXdXMBLMWBSh-ZQ-7" target="t6oE3MXdXMBLMWBSh-ZQ-11">
          <mxGeometry relative="1" as="geometry" />
        </mxCell>
        <mxCell id="t6oE3MXdXMBLMWBSh-ZQ-7" value="Caja" style="rounded=0;whiteSpace=wrap;html=1;" vertex="1" parent="1">
          <mxGeometry x="270" y="120" width="40" height="40" as="geometry" />
        </mxCell>
        <mxCell id="t6oE3MXdXMBLMWBSh-ZQ-8" value="Caja" style="rounded=0;whiteSpace=wrap;html=1;" vertex="1" parent="1">
          <mxGeometry x="464" y="390" width="40" height="40" as="geometry" />
        </mxCell>
        <mxCell id="t6oE3MXdXMBLMWBSh-ZQ-10" value="Casa" style="rounded=0;whiteSpace=wrap;html=1;" vertex="1" parent="1">
          <mxGeometry x="150" y="-40" width="60" height="130" as="geometry" />
        </mxCell>
        <mxCell id="t6oE3MXdXMBLMWBSh-ZQ-11" value="" style="rounded=0;whiteSpace=wrap;html=1;" vertex="1" parent="1">
          <mxGeometry x="150" y="-40" width="120" height="50" as="geometry" />
        </mxCell>
      </root>
    </mxGraphModel>
  </diagram>
</mxfile>
